<?xml version="1.0" encoding="UTF-8" standalone="no"?>
<!-- Created with Inkscape (http://www.inkscape.org/) -->

<svg
   xmlns:dc="http://purl.org/dc/elements/1.1/"
   xmlns:cc="http://creativecommons.org/ns#"
   xmlns:rdf="http://www.w3.org/1999/02/22-rdf-syntax-ns#"
   xmlns:svg="http://www.w3.org/2000/svg"
   xmlns="http://www.w3.org/2000/svg"
   version="1.1"
   width="82"
   height="82"
   id="svg2985">
  <metadata
     id="metadata2991">
    <rdf:RDF>
      <cc:Work
         rdf:about="">
        <dc:format>image/svg+xml</dc:format>
        <dc:type
           rdf:resource="http://purl.org/dc/dcmitype/StillImage" />
        <dc:title></dc:title>
      </cc:Work>
    </rdf:RDF>
  </metadata>
  <defs
     id="defs2989" />
  <g transform="scale(0.5)" id="crap">
  <g
     transform="translate(0.64424507,1.9327587)"
     id="g3001">
    <path
       d="m 3,117.60929 c 0,-0.2149 4.024535,-3.14718 8.943411,-6.51618 l 8.943411,-6.12546 27.160283,0.26618 27.160283,0.26617 -9.157953,6.25 -9.157953,6.25 -26.945741,0 C 15.125584,118 3,117.82418 3,117.60929 z M 0,95.567217 c 0,-0.238031 6.0612342,-4.517626 13.469409,-9.510211 l 13.46941,-9.077429 45.28059,0.260212 L 117.5,77.5 103.77641,86.75 90.052821,96 45.02641,96 C 20.261885,96 0,95.805248 0,95.567217 z m 7.0842171,-32.32429 c 2.9786809,-2.06639 10.1212899,-6.90389 15.8724659,-10.75 L 33.413365,45.5 97.706683,45.228593 c 35.361327,-0.149274 64.282277,0.07573 64.268777,0.5 C 161.96196,46.152867 155.00777,51.1125 146.5217,56.75 L 131.0925,67 66.380465,67 1.6684343,67 7.0842171,63.242927 z"
       id="path3005"
       style="fill:#bf1f24" />
    <path
       d="m 3,117.60929 c 0,-0.2149 4.024535,-3.14718 8.943411,-6.51618 l 8.943411,-6.12546 27.160283,0.26618 27.160283,0.26617 -9.157953,6.25 -9.157953,6.25 -26.945741,0 C 15.125584,118 3,117.82418 3,117.60929 z M 7.0842171,63.242927 c 2.9786809,-2.06639 10.1212899,-6.90389 15.8724659,-10.75 L 33.413365,45.5 97.706683,45.228593 c 35.361327,-0.149274 64.282277,0.07573 64.268777,0.5 C 161.96196,46.152867 155.00777,51.1125 146.5217,56.75 L 131.0925,67 66.380465,67 1.6684343,67 7.0842171,63.242927 z"
       id="path3003"
       style="fill:#3a3c46" />
  </g>
  </g>
</svg>
