<?xml version="1.0" encoding="UTF-8" standalone="no"?>
<svg
   xmlns:dc="http://purl.org/dc/elements/1.1/"
   xmlns:cc="http://creativecommons.org/ns#"
   xmlns:rdf="http://www.w3.org/1999/02/22-rdf-syntax-ns#"
   xmlns:svg="http://www.w3.org/2000/svg"
   xmlns="http://www.w3.org/2000/svg"
   xmlns:sodipodi="http://sodipodi.sourceforge.net/DTD/sodipodi-0.dtd"
   xmlns:inkscape="http://www.inkscape.org/namespaces/inkscape"
   inkscape:version="1.0 (4035a4fb49, 2020-05-01)"
   sodipodi:docname="wolf_nocircle_gap.svg"
   viewBox="0 0 1140.8737 744.33255"
   height="744.33252"
   width="1140.8738"
   xml:space="preserve"
   id="svg2"
   version="1.1"><metadata
     id="metadata8"><rdf:RDF><cc:Work
         rdf:about=""><dc:format>image/svg+xml</dc:format><dc:type
           rdf:resource="http://purl.org/dc/dcmitype/StillImage" /><dc:title></dc:title></cc:Work></rdf:RDF></metadata><defs
     id="defs6"><clipPath
       id="clipPath102"
       clipPathUnits="userSpaceOnUse"><path
         id="path100"
         d="M 0,1283.211 H 1080.999 V 0 H 0 Z" /></clipPath><clipPath
       id="clipPath114"
       clipPathUnits="userSpaceOnUse"><path
         id="path112"
         d="m 131.836,333.409 h 769.9 v 534.962 h -769.9 z" /></clipPath></defs><sodipodi:namedview
     fit-margin-bottom="0"
     fit-margin-right="0"
     fit-margin-left="0"
     fit-margin-top="0"
     inkscape:current-layer="g10"
     inkscape:window-maximized="0"
     inkscape:window-y="42"
     inkscape:window-x="0"
     inkscape:cy="404.84817"
     inkscape:cx="581.74127"
     inkscape:zoom="0.8816158"
     showgrid="false"
     id="namedview4"
     inkscape:window-height="1036"
     inkscape:window-width="1916"
     inkscape:pageshadow="2"
     inkscape:pageopacity="0"
     guidetolerance="10"
     gridtolerance="10"
     objecttolerance="10"
     borderopacity="1"
     bordercolor="#666666"
     pagecolor="#ffffff"
     inkscape:document-rotation="0" /><g
     transform="matrix(1.3333333,0,0,-1.3333333,29.275721,1532.1141)"
     inkscape:label="Wolf Sticker (branding OK)"
     inkscape:groupmode="layer"
     id="g10"><g
       style="fill:#cc0000;fill-opacity:1;"
       transform="translate(262.1779,764.60616)"
       id="g120"><path
         id="path122"
         style="fill:#cc0000;fill-opacity:1;fill-rule:nonzero;"
         d="m -34.896149,-24.176967 c 1.981,-1.336 3.925,-2.733 5.951,-3.998 16.309,-10.185 33.6270003,-18.369 51.337,-25.76 26.922,-11.234 54.554,-20.449 82.488009,-28.782 35.511,-10.594 71.385,-19.817003 107.544,-27.898003 25.79,-5.763 51.669,-11.13 77.51,-16.666 0.623,-0.133 1.267,-0.176 1.903,-0.263 18.132,-4.413 36.258,-8.837 54.391,-13.236 30.172,-7.32 60.348,-14.624 90.522,-21.935 13.493,-3.269 26.986,-6.538 40.477,-9.815 0.538,-0.129 1.059,-0.335 1.587,-0.506 -0.002,-0.245 -0.004,-0.49 -0.005,-0.734 -8.633,1.135 -17.268,2.259 -25.898,3.406 -8.952,1.191 -17.9,2.407 -26.85,3.607 -8.871,1.189 -17.744,2.371 -26.615,3.561 -9.029,1.212 -18.057,2.432 -27.086,3.649 -10.137,1.366 -20.274,2.736 -30.411,4.099 -8.871,1.194 -17.75,2.328 -26.613,3.582 -12.737,1.802 -25.474,3.607 -38.188,5.566 -12.16,1.874 -24.294,3.918 -36.432,5.938 -13.634,2.27 -27.269,4.545 -40.886,6.914 -14.877,2.585 -29.744,5.229 -44.598,7.941 -16.738,3.057 -33.479,6.111 -50.181,9.361 -19.602005,3.815 -39.182009,7.753 -58.740009,11.789 -32.936,6.795003 -65.738,14.195003 -98.374,22.318003 -30.856,7.68 -61.533001,16.006 -91.819991,25.71 -24.894,7.975 -49.489,16.756 -73.236,27.76 -13.22,6.125 -26.078,12.903 -38.016,21.3149998 -6.36,4.481 -12.425,9.3430001 -17.466,15.2940001 -2.622,3.0950001 -5.087,6.4090001 -7.076,9.9330001 -5.971,10.579 -5.848,21.346 -0.203,32.058 3.746,7.107 9.072,12.941 14.995,18.262 9.271,8.328 19.662,15.066 30.448,21.219 18.857,10.757997 38.655,19.504997 58.872,27.333997 29.301,11.348 59.21199,20.864 89.467991,29.281 18.158,5.05 36.437,9.664 54.661,14.474 0.969,-4.109 1.764,-8.269 2.948,-12.315 1.744,-5.961 3.549,-11.923 5.738,-17.731 1.876,-4.981 3.127,-10.072 3.658,-15.307 0.694,-6.827 1.03,-13.69 1.504,-20.537998 0.032,-0.468 -0.069,-0.945 -0.109,-1.419 -0.635,-0.329 -1.287,-0.628 -1.9,-0.991 -11.658,-6.910999 -22.451,-14.983999 -32.427,-24.152999 -6.03,-5.541 -11.418,-11.604 -15.573,-18.72 -5.538,-9.488 -7.091,-19.562 -4.584,-30.226 1.618,-6.882 5.027,-12.9190001 9.297,-18.48200021 7.485,-9.74999999 16.884,-17.39399979 26.931,-24.31399979 0.175,-0.121 0.446,-0.103 0.672,-0.15 l -0.014,0.017 c 0.133,-0.149 0.266,-0.299 0.399,-0.449" /></g><g
       style="fill-opacity:1"
       transform="translate(705.22648,1017.2199)"
       id="g124"><path
         id="path126"
         style="fill-opacity:1;fill-rule:nonzero;fill:#cc0000"
         d="m 0,0 c 0.759,-0.078 1.283,-0.125 1.806,-0.186 1.898,-0.221 3.795,-0.474 5.696,-0.663 1.099,-0.109 1.962,0.309 2.721,1.177 3.548,4.064 8.022,6.84 12.984,8.767 4.235,1.644 8.594,2.97 12.897,4.44 0.57,0.194 1.134,0.401 1.701,0.602 -0.049,0.159 -0.099,0.317 -0.148,0.476 -2.361,-0.35 -4.721,-0.702 -7.083,-1.05 C 16.272,11.458 2.108,8.649 -11.964,5.352 c -1.124,-0.263 -1.813,-0.78 -2.323,-1.798 -0.929,-1.855 -2.01,-3.634 -2.957,-5.481 -0.541,-1.057 -1.22,-1.704 -2.459,-1.999 -2.427,-0.575 -4.664,-1.659 -6.574,-3.311 -3.841,-3.324 -6.045,-7.724 -8.46,-12.68 15.891,3.381 31.483,5.692 46.718,10.15 -0.362,2.7 -1.757,4.298 -3.977,5.203 C 6.455,-3.933 4.841,-3.46 3.282,-2.852 1.952,-2.333 0.701,-1.672 0,0 m 114.297,2.675 1.042,-4.197 c 0.833,-1.349 1.434,-3.241 2.632,-4.489 0.99,-1.033 2.383,-1.471 3.388,-2.491 1.397,-1.415 1.478,-2.477 0.583,-3.937 -1.004,-1.641 -2.467,-1.986 -4.01,-1.564 -2.22,0.606 -2.406,3.897 -2.093,6.147 l 0.416,1 -2.267,5.284 c -1.141,2.259 -2.183,2.676 -4.837,2.331 -8.107,-1.056 -15.999,-3.07 -23.965,-4.764 -3.983,-0.847 -7.998,-1.547 -12.008,-2.252 -0.973,-0.171 -4.506,-0.036 -3.881,-1.224 0.34,-0.646 0.61,-1.618 0.628,-1.883 0.05,-0.401 -0.09,-0.796 -0.163,-1.188 -0.204,-1.093 -0.821,-1.47 -1.965,-1.762 -1.251,-0.319 -3.182,-0.343 -4,0.75 -0.763,1.019 -0.75,1.896 -0.25,3.458 -4.735,-0.825 -10.715,-1.795 -15.351,-3.382 -0.975,-0.334 -1.281,-1.027 -1.548,-1.926 -1.989,-6.717 -1.545,-13.267 1.251,-19.67 0.352,-0.805 0.773,-0.73 1.523,-2.063 0.426,-1.419 0.426,-2.483 -0.502,-3.544 -0.964,-1.103 -2.082,-1.707 -3.592,-1.389 -1.393,0.293 -2.228,1.048 -2.54,2.501 -0.321,1.501 -0.043,2.882 0.601,4.183 0.54,1.092 0.485,2.042 0.112,3.191 -1.238,3.816 -2.701,7.517 -4.791,10.956 -1.062,1.747 -2.046,1.992 -3.588,0.721 -0.547,-0.452 -0.999,-1.034 -1.438,-1.6 -7.737,-9.992 -15.531,-19.94 -23.165,-30.009 -3.364,-4.436 -7.54,-7.245 -13.063,-8.121 -4.564,-0.724 -9.103,-1.604 -14.191,-2.512 11.737,15.286 23.165,30.166 34.806,45.328 -1.764,0.472 -3.342,0.397 -4.811,0.008 -10.824,-2.861 -21.969,-4.14 -32.852,-6.726 -3.563,-0.846 -7.243,-1.242 -10.888,-1.701 -4.824,-0.607 -8.334,-3.062 -9.849,-7.619 -1.025,-3.086 -3.156,-3.683 -5.798,-3.938 -0.317,-0.031 -0.643,0.021 -0.959,-0.011 -1.385,-0.139 -2.131,0.445 -2.687,1.771 -3.462,8.251 -7.02,16.462 -10.543,24.688 -0.531,1.238 -1.049,2.48 -1.581,3.743 1.576,1.606 3.546,1.64 5.406,1.826 0.512,0.051 1.177,-0.479 1.627,-0.898 1.52,-1.414 2.978,-2.896 4.454,-4.357 1.47,-1.455 2.931,-2.917 4.566,-4.545 0.97,0.873 1.857,1.533 2.57,2.344 1.211,1.38 2.369,2.815 3.453,4.298 2.314,3.167 4.608,6.343 8.027,8.719 -2.234,7.996 -6.586,15.054 -9.679,22.834 2.827,1.908 5.901,2.544 9.122,2.45 0.63,-0.019 1.32,-0.792 1.84,-1.349 4.366,-4.678 8.763,-9.33 13.004,-14.119 1.23,-1.389 2.348,-1.725 4.125,-1.358 14.552,3.007 29.123,5.918 43.688,8.861 5.09,1.028 10.167,2.13 15.275,3.055 1.478,0.268 2.414,0.937 3.279,2.094 7.704,10.316 15.44,20.61 23.202,30.883 1.782,2.36 3.667,4.647 5.569,6.912 4.884,5.819 11.247,8.844 18.716,9.566 2.371,0.229 4.784,0.035 7.183,0.035 0.03,-0.055 0.074,-0.119 0.097,-0.19 0.023,-0.07 0.063,-0.175 0.032,-0.217 C 90.768,54.503 77.871,37.394 64.93,20.225 c 0.584,-1.396 1.578,-1.601 2.91,-1.329 9.471,1.936 18.944,3.852 28.424,5.741 3.447,0.686 6.898,1.369 10.371,1.9 7.306,1.115 13.527,-1.37 19.011,-6.035 0.717,-0.609 1.302,-1.415 1.812,-2.216 1.278,-2.01 1.504,-4.081 -0.233,-5.942 -1.466,-1.569 -2.978,-3.128 -4.654,-4.459 -1.809,-1.437 -3.755,-2.746 -5.783,-3.851 z" /></g><g
       style="fill-opacity:1;fill:#cc0000"
       transform="translate(527.48901,970.1707)"
       id="g128"><path
         id="path130"
         style="fill-opacity:1;fill-rule:nonzero;fill:#cc0000"
         d="m 0,0 c -2.234,1.037 -4.541,1.942 -6.689,3.133 -7.125,3.95 -13.269,9.151 -18.737,15.155 -3.604,3.957 -7.121,7.994 -10.667,12.004 -0.148,0.168 -0.195,0.425 -0.29,0.64 13.074,2.223 26.142,4.489 39.226,6.66 12.453,2.065 24.917,4.07 37.387,6.029 11.13,1.747 22.274,3.408 33.416,5.08 5.847,0.877 11.703,1.698 17.557,2.534 0.365,0.052 0.746,0.007 1.417,0.007 C 92.135,50.607 91.828,50.168 91.483,49.76 81.936,38.456 72.37,27.166 62.852,15.837 61.918,14.727 60.869,14.161 59.471,13.842 40.001,9.408 20.543,4.921 1.085,0.438 0.71,0.351 0.361,0.148 0,0" /></g><g
       transform="translate(775.8831,615.01346)"
       id="g132"><path
         id="path134"
         style="fill:#fefafa;fill-opacity:1;fill-rule:nonzero;stroke:none"
         d="M 0,0 C 0.001,0.244 0.003,0.489 0.005,0.733 2.155,0.256 4.306,-0.221 6.457,-0.698 6.443,-0.762 6.429,-0.826 6.415,-0.89 4.277,-0.593 2.139,-0.297 0,0" /></g><g
       transform="translate(262.1779,764.60616)"
       id="g136"><path
         id="path138"
         style="fill:#ca2026;fill-opacity:1;fill-rule:nonzero;stroke:none"
         d="M 0,0 C -0.133,0.15 -0.266,0.3 -0.399,0.449 -0.266,0.3 -0.133,0.15 0,0" /></g><g
       style="fill-opacity:1;paint-order:stroke markers fill;"
       transform="translate(265.6385,949.38446)"
       id="g116"><path
         id="path118"
         style="fill-opacity:1;fill-rule:nonzero;paint-order:stroke markers fill;"
         d="m 0,0 c -0.955,4.769 -1.724,9.584 -2.899,14.298 -3.742,14.999 -9.675,29.098 -17.894,42.207 -2.732,4.358 -5.943,8.3 -9.997,11.552 -6.108,4.899 -9.377,11.629 -11.68,18.896 -2.082,6.566 -2.512,13.367 -1.961,20.154 0.457,5.637 2.753,10.825 5.452,15.756 1.298,2.371 2.904,4.586 4.507,6.772 0.743,1.014 1.749,1.869 2.744,2.66 2.737,2.178 5.496,2.294 8.412,0.398 0.936,-0.608 1.8,-1.327 2.689,-2.006 2.51,-1.918 5.256,-2.242 8.146,-1.085 1.627,0.651 3.186,1.477 4.769,2.239 0.719,0.346 1.407,0.762 2.134,1.09 2.614,1.179 4.108,0.941 3.916,-2.896 -0.144,-2.873 -0.621,-5.744 0.254,-8.566 0.328,-1.058 0.763,-2.116 1.349,-3.05 0.449,-0.716 1.127,-1.374 1.85,-1.82 2.038,-1.256 3.757,-0.475 3.873,1.904 0.135,2.784 0.13,5.608 -0.179,8.374 -1.116,9.987 -1.321,19.943 0.798,29.82 0.566,2.637 1.324,5.317 2.509,7.724 5.508,11.189 12.451,21.415 21.229,30.324 1.454,1.475 3.087,2.788 4.726,4.061 1.708,1.325 2.667,1.176 4.096,-0.427 4.699,-5.27 8.713,-11.056 12.474,-17.003 14.285,-22.586 29.31,-44.655 45.716,-65.764 8.099,-10.421 16.419,-20.654 25.661,-30.111 2.997,-3.066 6.252,-5.34 10.621,-5.977 4.259,-0.62 8.459,-1.635 12.704,-2.362 5.387,-0.923 10.233,-3.026 14.631,-6.252 7.255,-5.322 13.624,-11.61 19.815,-18.093 4.027,-4.215 8.005,-8.478 12.006,-12.718 0.095,-0.214 0.142,-0.472 0.29,-0.64 3.546,-4.009 7.063,-8.046 10.667,-12.003 5.468,-6.005 11.612,-11.206 18.737,-15.155 2.148,-1.191 4.455,-2.097 6.689,-3.134 4.438,-1.777 8.841,-3.652 13.323,-5.31 8.25,-3.05 16.371,-6.355 24.157,-10.491 8.391,-4.458 15.566,-10.283 21.383,-17.81 3.247,-4.202 3.554,-7.288 1.033,-11.928 -2.466,-4.542 -6.247,-7.846 -10.196,-11.002 -6.646,-5.311 -13.922,-9.633 -21.409,-13.627 -4.653,-2.482 -9.288,-5.002 -13.922,-7.521 -0.97,-0.528 -1.899,-1.13 -3.013,-1.796 0.351,-1.402 0.665,-2.703 1.001,-3.999 2.371,-9.116 4.881,-18.197 7.072,-27.355 1.373,-5.743 2.109,-11.619 2.362,-17.542 0.303,-7.093 2.013,-13.91 4.503,-20.508 1.803,-4.777 3.967,-9.419 5.983,-14.115 5.214,-12.142 8.946,-24.777 12.455,-37.483 3.19,-11.548 5.864,-23.22 7.976,-35.012 0.858,-4.789 1.467,-9.626 2.105,-14.452 0.359,-2.726 1.017,-5.295 2.49,-7.671 3.761,-6.07 8.145,-11.665 12.898,-16.969 5.977,-6.667 11.991,-13.308 19.086,-18.846 1.691,-1.319 3.422,-2.585 5.132,-3.876 -0.637,0.087 -1.28,0.13 -1.903,0.263 -25.841,5.536 -51.72,10.904 -77.51,16.667 -36.159,8.08 -72.033,17.304 -107.544,27.898 -27.935,8.333 -55.566,17.547 -82.488,28.782 -17.711,7.39 -35.028,15.575 -51.338,25.76 -2.026,1.264 -3.969,2.662 -5.95,3.998 -0.133,0.15 -0.267,0.299 -0.399,0.449 l 0.014,-0.018 c -0.016,0.789 0.065,1.596 -0.064,2.367 -1.159,6.931 -0.764,13.859 0.232,20.747 1.483,10.254 4.552,20.051 8.823,29.494 4.685,10.358 7.442,21.27 8.164,32.582 0.568,8.92 0.466,17.884 0.623,26.829 0.029,1.671 -0.124,3.346 -0.194,5.018 0.039,0.474 0.14,0.951 0.108,1.418 -0.473,6.849 -0.81,13.712 -1.503,20.538 -0.531,5.236 -1.782,10.327 -3.659,15.308 -2.189,5.807 -3.993,11.77 -5.738,17.731 C 1.763,-8.269 0.969,-4.109 0,0" /></g></g></svg>
