<?xml version="1.0" encoding="UTF-8" standalone="no"?>
<!-- Created with Inkscape (http://www.inkscape.org/) -->

<svg
   xmlns:dc="http://purl.org/dc/elements/1.1/"
   xmlns:cc="http://creativecommons.org/ns#"
   xmlns:rdf="http://www.w3.org/1999/02/22-rdf-syntax-ns#"
   xmlns:svg="http://www.w3.org/2000/svg"
   xmlns="http://www.w3.org/2000/svg"
   xmlns:sodipodi="http://sodipodi.sourceforge.net/DTD/sodipodi-0.dtd"
   xmlns:inkscape="http://www.inkscape.org/namespaces/inkscape"
   version="1.1"
   width="82"
   height="82"
   id="svg2985"
   inkscape:version="0.48.3.1 r9886"
   sodipodi:docname="SVS-VISTEK_logo.svg">
  <sodipodi:namedview
     pagecolor="#ffffff"
     bordercolor="#666666"
     borderopacity="1"
     objecttolerance="10"
     gridtolerance="10"
     guidetolerance="10"
     inkscape:pageopacity="0"
     inkscape:pageshadow="2"
     inkscape:window-width="733"
     inkscape:window-height="480"
     id="namedview3049"
     showgrid="false"
     fit-margin-top="0"
     fit-margin-left="0"
     fit-margin-right="0"
     fit-margin-bottom="0"
     inkscape:zoom="1"
     inkscape:cx="18.5"
     inkscape:cy="15.72034"
     inkscape:window-x="641"
     inkscape:window-y="181"
     inkscape:window-maximized="0"
     inkscape:current-layer="svg2985" />
  <metadata
     id="metadata2991">
    <rdf:RDF>
      <cc:Work
         rdf:about="">
        <dc:format>image/svg+xml</dc:format>
        <dc:type
           rdf:resource="http://purl.org/dc/dcmitype/StillImage" />
        <dc:title />
      </cc:Work>
    </rdf:RDF>
  </metadata>
  <defs
     id="defs2989" />
  <path
     d="m 3,77.837914 c 0,-1.049176 0.216296,-1.176148 2.226331,-1.306927 1.6029989,-0.104291 2.2263302,-0.344439 2.2263302,-0.85772 0,-0.467659 -0.5636269,-0.767093 -1.6385694,-0.870506 C 4.9128725,74.716062 3.911023,74.422544 3.5877616,74.15051 2.8385224,73.520014 2.8195588,69.392885 3.5624575,68.639629 c 0.3184214,-0.322868 1.8435563,-0.570297 3.5152581,-0.570297 2.8372036,0 2.9528174,0.04653 2.9528174,1.188116 0,1.108906 -0.1562373,1.188116 -2.3435063,1.188116 -2.0310378,0 -2.3435059,0.126729 -2.3435059,0.950491 0,0.754025 0.3148603,0.951999 1.5232795,0.957767 2.4030817,0.01159 2.9293817,0.607864 2.9293817,3.319445 0,2.931342 -0.4673694,3.309632 -4.1011344,3.319454 -2.5480845,0.0076 -2.6950322,-0.05604 -2.6950322,-1.154807 z m 10.884017,0.568011 c -0.263767,-0.326724 -1.055673,-2.518796 -1.759782,-4.871264 -0.704111,-2.352468 -1.38035,-4.544539 -1.502756,-4.87127 -0.142405,-0.380126 0.213251,-0.594059 0.987592,-0.594059 1.102699,0 1.300833,0.316472 2.231548,3.564345 0.561769,1.960391 1.157551,3.564346 1.32396,3.564346 0.166402,0 0.767951,-1.603955 1.336764,-3.564346 0.929203,-3.20244 1.152889,-3.564345 2.20305,-3.564345 0.642869,0 1.168849,0.104368 1.168849,0.231939 0,0.692738 -2.98923,9.602651 -3.390063,10.104654 -0.260879,0.326744 -0.844507,0.594074 -1.296947,0.594074 -0.452444,0 -1.038436,-0.26733 -1.302215,-0.594074 z m 6.542503,-0.475238 c 0.127815,-0.912509 0.47623,-1.090542 2.376104,-1.214153 1.844002,-0.119986 2.226332,-0.303611 2.226332,-1.069303 0,-0.738519 -0.327768,-0.924455 -1.629652,-0.924455 -2.146074,0 -3.297808,-1.640188 -2.899468,-4.12915 0.351904,-2.198835 0.865163,-2.508073 4.177594,-2.517016 2.548083,-0.0068 2.695029,0.05608 2.695029,1.154799 0,1.049178 -0.216296,1.176148 -2.226329,1.306927 -1.603,0.104292 -2.22633,0.344438 -2.22633,0.857719 0,0.467661 0.563625,0.767095 1.638574,0.870508 0.901214,0.0867 1.903064,0.380216 2.226332,0.652251 0.749232,0.630494 0.768196,4.757626 0.02529,5.510881 -0.319721,0.324178 -1.850805,0.570304 -3.547862,0.570304 -2.827894,0 -2.977514,-0.05644 -2.835643,-1.069312 z m 16.078251,0.58198 c -0.282631,-0.463694 -3.507894,-9.962006 -3.507894,-10.330658 0,-0.0967 0.569677,-0.10813 1.265951,-0.02542 1.120378,0.133076 1.367688,0.505609 2.150629,3.239475 0.486575,1.699005 1.043575,3.258454 1.237793,3.465442 0.194218,0.206988 0.82536,-1.236571 1.402523,-3.207911 0.931399,-3.181214 1.176898,-3.584258 2.183252,-3.584258 0.623637,0 1.133882,0.159999 1.133882,0.355543 0,0.195549 -0.755649,2.654946 -1.67922,5.465327 C 39.189737,78.460628 38.895807,79 37.907142,79 c -0.607924,0 -1.239,-0.219298 -1.402371,-0.487332 z m 6.803539,-4.978006 0,-5.465329 1.171749,0 1.171749,0 0,5.465329 0,5.465338 -1.171749,0 -1.171749,0 0,-5.465338 z m 3.749593,4.303253 c 0,-1.049176 0.216296,-1.176148 2.226344,-1.306927 1.602992,-0.104291 2.226325,-0.344439 2.226325,-0.85772 0,-0.467659 -0.563635,-0.767093 -1.638579,-0.870506 -0.901208,-0.0867 -1.903059,-0.380217 -2.226325,-0.652251 -0.749227,-0.630496 -0.768189,-4.757625 -0.02529,-5.510881 0.318422,-0.322868 1.843552,-0.570297 3.515265,-0.570297 2.837195,0 2.952811,0.04653 2.952811,1.188116 0,1.108906 -0.15618,1.188116 -2.343498,1.188116 -2.031045,0 -2.343518,0.126729 -2.343518,0.950491 0,0.754025 0.314868,0.951999 1.523288,0.957767 2.097296,0.01007 2.683121,0.500572 3.005838,2.517018 0.192183,1.200851 0.03952,2.102891 -0.49611,2.93183 -0.684039,1.058553 -1.098428,1.197329 -3.575116,1.197329 -2.658954,0 -2.801416,-0.05909 -2.801416,-1.162085 z m 9.842741,-3.115138 c 0,-4.245529 -0.0095,-4.277212 -1.171768,-4.277212 -0.937403,0 -1.171749,-0.237623 -1.171749,-1.188116 0,-1.161711 0.07809,-1.188116 3.515266,-1.188116 3.437138,0 3.515247,0.02643 3.515247,1.188116 0,0.950493 -0.234348,1.188116 -1.171749,1.188116 -1.163066,0 -1.171749,0.0317 -1.171749,4.277212 0,4.245531 -0.0095,4.277223 -1.171749,4.277223 -1.163085,0 -1.171749,-0.03173 -1.171749,-4.277223 z m 6.36093,3.530389 c -0.552062,-0.559763 -0.736533,-1.741529 -0.736533,-4.718504 0,-5.028286 0.358745,-5.465329 4.486149,-5.465329 2.884332,0 3.01308,0.0497 3.01308,1.163279 0,1.067954 -0.201289,1.175051 -2.456285,1.306926 -1.898404,0.111017 -2.491721,0.332549 -2.612234,0.975329 -0.13338,0.711504 0.221525,0.831682 2.456305,0.831682 2.473894,0 2.612214,0.06291 2.612214,1.188113 0,1.125203 -0.13832,1.188115 -2.612214,1.188115 -2.234651,0 -2.589744,0.120213 -2.456632,0.831682 0.11571,0.618864 0.754247,0.892483 2.495065,1.069302 1.983638,0.201486 2.362215,0.400249 2.489207,1.306927 0.14212,1.014782 -0.0059,1.069312 -2.895904,1.069312 -2.143863,0 -3.263761,-0.221142 -3.782218,-0.746834 z m 7.700097,-4.718504 0,-5.465329 1.171748,0 c 1.076271,0 1.171743,0.17425 1.171743,2.138609 0,1.176231 0.16264,2.138607 0.361329,2.138607 0.198725,0 0.879799,-0.962376 1.513481,-2.138607 0.948212,-1.760022 1.388313,-2.138609 2.486098,-2.138609 l 1.33393,0 -1.42359,2.66509 -1.423594,2.665094 1.268534,2.4438 c 0.69768,1.344096 1.340029,2.604201 1.427429,2.800243 0.0874,0.196042 -0.438669,0.353342 -1.169057,0.34958 -1.107239,-0.0057 -1.561719,-0.420432 -2.734098,-2.49504 L 73.53953,74.009908 73.397793,76.50495 c -0.130151,2.291217 -0.235386,2.495049 -1.288937,2.495049 l -1.147266,0 0,-5.465338 z m -42.183105,0.712871 c 0,-0.79208 0.312469,-0.950493 1.874804,-0.950493 1.562336,0 1.874806,0.158423 1.874806,0.950493 0,0.792077 -0.31247,0.950491 -1.874806,0.950491 -1.562335,0 -1.874804,-0.158422 -1.874804,-0.950491 z M 31.8015,57.897457 C 27.41298,57.052585 23.349245,55.833173 21.17628,54.709128 l -1.771737,-0.916492 0,-6.802198 c 0,-3.74121 0.116677,-6.92052 0.25931,-7.065135 0.142614,-0.144607 1.777215,0.135318 3.632431,0.622077 8.233287,2.160169 14.921375,2.916588 18.605912,2.104317 3.80361,-0.838516 7.838393,-3.846971 9.446857,-7.043853 1.328955,-2.641334 1.104964,-8.680703 -0.431946,-11.646483 -0.617576,-1.191749 -0.911563,-2.315979 -0.702791,-2.68768 0.79553,-1.416505 7.967916,2.287321 10.644353,5.49675 0.741131,0.888725 1.893827,2.792096 2.561521,4.229717 1.040119,2.239449 1.214022,3.26055 1.214022,7.128688 0,3.981628 -0.15048,4.810595 -1.274174,7.019113 -1.955592,3.843604 -4.017191,6.15208 -7.76249,8.692069 -4.769171,3.234346 -8.428115,4.332474 -15.101447,4.53226 -3.2376,0.09692 -6.709703,-0.09268 -8.694601,-0.474821 z M 10.036048,36.471092 C 3.7643339,30.101859 2.8812406,29.0232 3.4799038,28.463046 5.964849,26.137932 16.240766,18.599254 15.977712,19.294328 c -0.177536,0.469094 -0.322781,1.685763 -0.322781,2.703707 0,1.748817 -0.194757,1.999445 -3.534287,4.548072 l -3.5342887,2.697265 4.7060397,4.849083 4.706043,4.849081 0,2.445128 c 0,1.344818 -0.16074,2.445123 -0.357198,2.445123 -0.196456,0 -3.618794,-3.312314 -7.605192,-7.360695 z m 56.129184,2.753032 c 0.201799,-2.698301 0.282779,-2.837482 3.70141,-6.362346 l 3.495089,-3.603701 -4.506369,-3.434495 c -2.478487,-1.888973 -4.61369,-3.718077 -4.744868,-4.064679 -0.1311,-0.3466 -0.17252,-1.475401 -0.09177,-2.508446 l 0.14668,-1.878263 7.264886,5.674322 c 3.995677,3.12088 7.319764,5.819535 7.386869,5.997013 0.10868,0.28755 -1.362841,1.78029 -10.474131,10.624847 l -2.38417,2.314396 0.206296,-2.758648 z m -37.92477,0.37254 C 23.765034,37.821852 20.300165,34.515185 18.370764,30.177597 17.578196,28.395772 17.355398,26.945505 17.328985,23.396211 17.29879,19.340536 17.433333,18.5965 18.651806,16.080273 21.280898,10.651034 27.64174,5.6969271 34.600504,3.6587228 c 2.253537,-0.6600563 4.016079,-0.7672274 9.374022,-0.569986 6.808821,0.2506517 11.528668,1.2032597 16.322805,3.294434 l 2.22771,0.971724 0,7.0701682 c 0,8.114987 0.457199,7.560026 -5.050939,6.130979 -4.605999,-1.194992 -11.445315,-2.389197 -13.641316,-2.381895 -1.923256,0.0064 -5.894712,0.994368 -7.500915,1.865991 -1.946994,1.056549 -4.79271,3.97176 -5.766627,5.907452 -1.323218,2.629944 -1.057757,8.800371 0.493276,11.46589 1.065791,1.831606 1.049585,3.109644 -0.03893,3.069358 -0.33032,-0.01216 -1.580932,-0.411007 -2.779139,-0.886174 z m 9.185847,-1.185814 c -1.932918,-0.85368 -3.825479,-3.235495 -4.45527,-5.607001 -2.02031,-7.607635 6.813322,-13.496955 13.267603,-8.845407 2.653825,1.912593 2.508988,2.411761 -1.344915,4.635083 -1.935473,1.116582 -3.396155,2.154755 -3.24596,2.307048 0.1501,0.152287 1.749805,1.164715 3.554691,2.24982 l 3.281623,1.972921 -0.934686,1.204852 c -1.970167,2.539626 -6.826339,3.538714 -10.123086,2.082684 z"
     id="path2995"
     style="fill:#0479c0"
     inkscape:connector-curvature="0" />
</svg>
