<?xml version="1.0" encoding="UTF-8" standalone="no"?>
<svg
   xmlns:dc="http://purl.org/dc/elements/1.1/"
   xmlns:cc="http://creativecommons.org/ns#"
   xmlns:rdf="http://www.w3.org/1999/02/22-rdf-syntax-ns#"
   xmlns:svg="http://www.w3.org/2000/svg"
   xmlns="http://www.w3.org/2000/svg"
   xmlns:sodipodi="http://sodipodi.sourceforge.net/DTD/sodipodi-0.dtd"
   xmlns:inkscape="http://www.inkscape.org/namespaces/inkscape"
   viewBox="0 0 670 670"
   height="84"
   width="84"
   xml:space="preserve"
   id="svg2"
   version="1.1"
   inkscape:version="0.91 r13725"
   sodipodi:docname="preiss_logo_large.svg"><sodipodi:namedview
     pagecolor="#ffffff"
     bordercolor="#666666"
     borderopacity="1"
     objecttolerance="10"
     gridtolerance="10"
     guidetolerance="10"
     inkscape:pageopacity="0"
     inkscape:pageshadow="2"
     inkscape:window-width="1164"
     inkscape:window-height="797"
     id="namedview3433"
     showgrid="false"
     fit-margin-right="60"
     fit-margin-top="0"
     fit-margin-left="0"
     fit-margin-bottom="0"
     inkscape:zoom="0.81770833"
     inkscape:cx="502.10253"
     inkscape:cy="350.02786"
     inkscape:window-x="3621"
     inkscape:window-y="138"
     inkscape:window-maximized="0"
     inkscape:current-layer="svg2" /><metadata
     id="metadata8"><rdf:RDF><cc:Work
         rdf:about=""><dc:format>image/svg+xml</dc:format><dc:type
           rdf:resource="http://purl.org/dc/dcmitype/StillImage" /><dc:title></dc:title></cc:Work></rdf:RDF></metadata><defs
     id="defs6"><clipPath
       id="clipPath18"
       clipPathUnits="userSpaceOnUse"><path
         id="path16"
         d="M 0,576 1008,576 1008,0 0,0 Z"
         inkscape:connector-curvature="0" /></clipPath></defs><g
     transform="matrix(1.3333333,0,0,-1.3333333,-205.24841,999.92117)"
     id="g10"><g
       id="g14"
       clip-path="url(#clipPath18)"
       transform="translate(-140.33121,31.184714)"><g
         id="g20"
         transform="translate(597.3535,536.27779)"><path
           inkscape:connector-curvature="0"
           d="m 0,0 c 0,-9.939 -8.283,-17.997 -18.5,-17.997 -10.217,0 -18.5,8.058 -18.5,17.997 0,9.939 8.283,17.996 18.5,17.996 C -8.283,17.996 0,9.939 0,0"
           style="fill:#231f20;fill-opacity:1;fill-rule:nonzero;stroke:none"
           id="path22" /></g><g
         id="g24"
         transform="translate(608.6875,512.13229)"><path
           inkscape:connector-curvature="0"
           d="m 0,0 c 0,0 -51.5,-54.739 0,-122.226 l -7.834,0 c 0,0 -18.667,27.444 -41.5,0 l -8.5,0 c 0,0 50.833,59.688 -0.5,122.376 l 7.5,-0.15 c 0,0 20.501,-23.846 43.334,0.3 z"
           style="fill:#231f20;fill-opacity:1;fill-rule:nonzero;stroke:none"
           id="path26" /></g><g
         id="g28"
         transform="translate(695.6933,479.61569)"><path
           inkscape:connector-curvature="0"
           d="m 0,0 -25.266,0 0,10.35 c 0,8.279 -5.441,13.109 -13.993,13.109 -8.163,0 -14.382,-3.91 -14.382,-12.189 0,-7.821 4.276,-13.11 13.994,-20.241 l 22.933,-16.33 C -4.275,-34.27 1.943,-44.16 1.943,-56.119 c 0,-21.16 -15.936,-32.66 -41.202,-32.66 -22.545,0 -38.481,11.269 -38.481,28.06 l 0,10.809 25.265,0 0,-11.039 c 0,-9.2 3.498,-14.49 13.605,-14.49 10.495,0 15.936,4.83 15.936,15.41 0,9.66 -4.275,18.399 -13.604,25.069 l -23.711,17.249 C -71.521,-9.66 -77.74,0.459 -77.74,10.35 c 0,15.869 17.88,26.679 40.036,26.679 C -13.604,37.029 0,26.219 0,7.359 Z"
           style="fill:#231f20;fill-opacity:1;fill-rule:nonzero;stroke:none"
           id="path30" /></g><g
         id="g32"
         transform="translate(603.3535,537.27389)"><path
           inkscape:connector-curvature="0"
           d="m 0,0 c 0,-9.941 -8.283,-18 -18.5,-18 -10.217,0 -18.5,8.059 -18.5,18 0,9.941 8.283,18 18.5,18 C -8.283,18 0,9.941 0,0"
           style="fill:#c12026;fill-opacity:1;fill-rule:nonzero;stroke:none"
           id="path34" /></g><g
         id="g36"
         transform="translate(614.6875,513.12349)"><path
           inkscape:connector-curvature="0"
           d="m 0,0 c 0,0 -51.5,-54.75 0,-122.25 l -7.834,0 c 0,0 -18.667,27.449 -41.5,0 l -8.5,0 c 0,0 50.833,59.699 -0.5,122.4 l 7.5,-0.15 c 0,0 20.501,-23.851 43.334,0.3 z"
           style="fill:#c12026;fill-opacity:1;fill-rule:nonzero;stroke:none"
           id="path38" /></g><g
         id="g40"
         transform="translate(331.9429,551.52389)"><path
           inkscape:connector-curvature="0"
           d="m 0,0 0,-69.229 10.884,0.23 c 18.269,1.38 28.764,7.59 28.764,20.7 l 0,29.899 C 39.648,-5.52 29.93,0 14.382,0 Z m 0,-82.568 0,-77.28 -26.432,0 0,172.268 42.369,0 c 27.209,0 50.143,-8.051 50.143,-31.97 l 0,-30.819 c 0,-17.02 -16.326,-31.97 -52.864,-31.97 z"
           style="fill:#231f20;fill-opacity:1;fill-rule:nonzero;stroke:none"
           id="path42" /></g><g
         id="g44"
         transform="translate(434.5547,391.90669)"><path
           inkscape:connector-curvature="0"
           d="m 0,0 -25.266,0 0,122.128 25.266,0 0,-5.75 c 10.495,5.29 14.771,6.21 32.651,6.67 l 0,-15.64 c -6.608,1.151 -9.717,1.38 -15.16,1.38 C 6.997,108.788 0,106.718 0,101.658 Z"
           style="fill:#231f20;fill-opacity:1;fill-rule:nonzero;stroke:none"
           id="path46" /></g><g
         id="g48"
         transform="translate(496.3525,463.20549)"><path
           inkscape:connector-curvature="0"
           d="m 0,0 27.501,0.201 -0.5,24.75 c 0,11.499 -1.59,15 -13.25,15 C 4.033,39.951 0,34.27 0,24.609 Z m 0,-14.029 0,-31.51 c 0,-9.43 2.721,-14.95 12.438,-14.95 10.883,0 13.994,5.29 13.994,17.02 l 0,14.49 25.265,0 0,-9.89 c 0,-21.39 -9.329,-34.73 -39.259,-34.73 -31.874,0 -38.093,15.41 -38.093,37.95 l 0,50.369 c 0,22.54 6.219,38.178 38.871,38.178 27.597,0 38.481,-12.878 38.481,-31.508 l 0,-35.419 z"
           style="fill:#231f20;fill-opacity:1;fill-rule:nonzero;stroke:none"
           id="path50" /></g><g
         id="g52"
         transform="translate(436.8125,390.78169)"><path
           inkscape:connector-curvature="0"
           d="M 0,0 C 0,0 -4.641,23.75 -2.523,31.75 L -27.532,31.5 c 0,0 0.061,-26.875 -1.316,-31.5 z"
           style="fill:#231f20;fill-opacity:1;fill-rule:nonzero;stroke:none"
           id="path54" /></g><g
         id="g56"
         transform="translate(406.8393,514.40669)"><path
           inkscape:connector-curvature="0"
           d="m 0,0 c 0,0 4.64,-23.75 2.523,-31.75 l 25.009,0.25 c 0,0 -0.061,26.875 1.316,31.5 z"
           style="fill:#231f20;fill-opacity:1;fill-rule:nonzero;stroke:none"
           id="path58" /></g><g
         id="g60"
         transform="translate(522.1416,436.15769)"><path
           inkscape:connector-curvature="0"
           d="m 0,0 c 0,0 4.302,-13.278 2.34,-17.75 l 23.182,0.14 c 0,0 -0.055,15.024 1.221,17.61 z"
           style="fill:#231f20;fill-opacity:1;fill-rule:nonzero;stroke:none"
           id="path62" /></g><g
         id="g64"
         transform="translate(339.187,390.90669)"><path
           inkscape:connector-curvature="0"
           d="m 0,0 -38.333,0 c 0,0 5.333,19 5.333,40.333 l 25.333,0 C -7.667,40.333 -8,17 0,0"
           style="fill:#231f20;fill-opacity:1;fill-rule:nonzero;stroke:none"
           id="path66" /></g><g
         id="g68"
         transform="translate(298.8535,563.90569)"><path
           inkscape:connector-curvature="0"
           d="m 0,0 35,0 c 0,0 -4.87,-18.843 -4.87,-40 L 7,-40 c 0,0 0.305,23.141 -7,40"
           style="fill:#231f20;fill-opacity:1;fill-rule:nonzero;stroke:none"
           id="path70" /></g><g
         id="g72"
         transform="translate(402.8535,514.57269)"><path
           inkscape:connector-curvature="0"
           d="m 0,0 35,0 c 0,0 -4.869,-18.843 -4.869,-40 L 7,-40 c 0,0 0.305,23.141 -7,40"
           style="fill:#231f20;fill-opacity:1;fill-rule:nonzero;stroke:none"
           id="path74" /></g><g
         id="g76"
         transform="translate(519.1865,436.23969)"><path
           inkscape:connector-curvature="0"
           d="m 0,0 31.667,0 c 0,0 -3.666,-13.001 -5,-23.668 L 4.334,-24.001 c 0,0 2.275,14.869 -4.334,24.001"
           style="fill:#231f20;fill-opacity:1;fill-rule:nonzero;stroke:none"
           id="path78" /></g><g
         id="g80"
         transform="translate(697.8535,476.90569)"><path
           inkscape:connector-curvature="0"
           d="m 0,0 -28.125,0.001 c 0,0 0.373,5.332 1.791,13.332 l 22.584,5.918 c 0,0 1.125,-3.625 3.75,-19.251"
           style="fill:#231f20;fill-opacity:1;fill-rule:nonzero;stroke:none"
           id="path82" /></g><g
         id="g84"
         transform="translate(616.8945,434.82369)"><path
           inkscape:connector-curvature="0"
           d="m 0,0 28.125,-0.001 c 0,0 -0.373,-5.332 -1.791,-13.332 L 3.75,-19.251 c 0,0 -1.125,3.625 -3.75,19.251"
           style="fill:#231f20;fill-opacity:1;fill-rule:nonzero;stroke:none"
           id="path86" /></g><g
         id="g88"
         transform="translate(787.6933,479.78269)"><path
           inkscape:connector-curvature="0"
           d="m 0,0 -25.266,0 0,10.35 c 0,8.279 -5.441,13.109 -13.993,13.109 -8.163,0 -14.382,-3.91 -14.382,-12.189 0,-7.821 4.276,-13.11 13.994,-20.241 l 22.933,-16.33 C -4.275,-34.27 1.943,-44.16 1.943,-56.119 c 0,-21.16 -15.936,-32.66 -41.202,-32.66 -22.545,0 -38.481,11.269 -38.481,28.06 l 0,10.809 25.265,0 0,-11.039 c 0,-9.2 3.498,-14.49 13.605,-14.49 10.495,0 15.936,4.83 15.936,15.41 0,9.66 -4.275,18.399 -13.604,25.069 l -23.711,17.249 C -71.521,-9.66 -77.74,0.459 -77.74,10.35 c 0,15.869 17.88,26.679 40.036,26.679 C -13.604,37.029 0,26.219 0,7.359 Z"
           style="fill:#231f20;fill-opacity:1;fill-rule:nonzero;stroke:none"
           id="path90" /></g><g
         id="g92"
         transform="translate(789.8535,477.07269)"><path
           inkscape:connector-curvature="0"
           d="m 0,0 -28.125,0.001 c 0,0 0.373,5.332 1.791,13.332 l 22.584,5.918 c 0,0 1.125,-3.625 3.75,-19.251"
           style="fill:#231f20;fill-opacity:1;fill-rule:nonzero;stroke:none"
           id="path94" /></g><g
         id="g96"
         transform="translate(708.8945,434.99069)"><path
           inkscape:connector-curvature="0"
           d="m 0,0 28.125,-0.001 c 0,0 -0.373,-5.332 -1.791,-13.332 L 3.75,-19.251 c 0,0 -1.125,3.625 -3.75,19.251"
           style="fill:#231f20;fill-opacity:1;fill-rule:nonzero;stroke:none"
           id="path98" /></g><g
         id="g100"
         transform="translate(550.4375,449.15569)"><path
           inkscape:connector-curvature="0"
           d="m 0,0 -18.375,0.002 c 0,0 0.244,10.803 1.17,27.011 l 14.754,11.988 c 0,0 0.736,-7.343 2.451,-39.001"
           style="fill:#231f20;fill-opacity:1;fill-rule:nonzero;stroke:none"
           id="path102" /></g><g
         id="g104"
         transform="translate(160.4214,295.5127)" /><g
         id="g108"
         transform="translate(200.627,290.8965)" /><g
         id="g112"
         transform="translate(232.4585,278.9092)" /><g
         id="g116"
         transform="translate(263.9258,308.1484)" /><g
         id="g124"
         transform="translate(327.9556,290.8965)" /></g></g></svg>
